<svg xmlns="http://www.w3.org/2000/svg" viewBox="0 0 512 512">
<defs>
  <linearGradient id="bg" gradientUnits="userSpaceOnUse" x1="0" y1="0" x2="512" y2="512">
    <stop offset="0" stop-color="#4A73F0"/><stop offset="1" stop-color="#2343B8"/>
  </linearGradient>
  <clipPath id="clip"><rect x="0" y="0" width="512" height="512" rx="115"/></clipPath>
</defs>
<rect x="0" y="0" width="512" height="512" rx="115" fill="url(#bg)"/>
<g clip-path="url(#clip)">
  <g transform="translate(0.0 0.0) scale(1.0)">
    <!-- 脸剪影，眼睛用 evenodd 反向子路径挖洞透底 -->
    <path fill-rule="evenodd" fill="#fff" d="M 26 512 L 26 375 A 230 230 0 0 1 486 375 L 486 512 Z
      M 150 342 A 32 32 0 0 1 214 342 L 214 386 A 32 32 0 0 1 150 386 Z
      M 298 342 A 32 32 0 0 1 362 342 L 362 386 A 32 32 0 0 1 298 386 Z"/>
    <circle cx="188" cy="190" r="32" fill="#fff"/>
    <circle cx="150" cy="134" r="42" fill="#fff"/>
    <circle cx="112" cy="80" r="56" fill="#fff"/>
    <circle cx="324" cy="190" r="32" fill="#fff"/>
    <circle cx="362" cy="134" r="42" fill="#fff"/>
    <circle cx="400" cy="80" r="56" fill="#fff"/>
  </g>
</g>
</svg>